<svg xmlns="http://www.w3.org/2000/svg" viewBox="0 0 512 512" width="512" height="512"><metadata><rdf:RDF xmlns:rdf="http://www.w3.org/1999/02/22-rdf-syntax-ns#" xmlns:dc="http://purl.org/dc/elements/1.1/"><rdf:Description><dc:creator>RealFaviconGenerator</dc:creator><dc:source>https://realfavicongenerator.net</dc:source></rdf:Description></rdf:RDF></metadata><defs>
        <linearGradient id="bgGrad" x1="0%" y1="0%" x2="100%" y2="100%">
            <stop offset="0%" style="stop-color:#141c26;stop-opacity:1"></stop>
            <stop offset="100%" style="stop-color:#8da1b9;stop-opacity:1"></stop>
        </linearGradient>
        <filter id="shadow" x="-10%" y="-10%" width="120%" height="120%">
            <feDropShadow dx="0" dy="8" stdDeviation="12" flood-color="#141c26" flood-opacity="0.3"></feDropShadow>
        </filter>
    </defs><rect x="16" y="16" width="480" height="480" rx="96" ry="96" fill="url(#bgGrad)" filter="url(#shadow)"></rect><circle cx="256" cy="256" r="160" fill="#ef959c" opacity="0.15"></circle><rect x="136" y="120" width="240" height="272" rx="24" ry="24" fill="#f7f0ee"></rect><rect x="176" y="96" width="24" height="48" rx="12" ry="12" fill="#dbc7be"></rect><rect x="312" y="96" width="24" height="48" rx="12" ry="12" fill="#dbc7be"></rect><rect x="168" y="192" width="176" height="16" rx="8" ry="8" fill="#8da1b9" opacity="0.8"></rect><rect x="168" y="232" width="128" height="16" rx="8" ry="8" fill="#95adb6" opacity="0.9"></rect><rect x="168" y="272" width="160" height="16" rx="8" ry="8" fill="#95adb6" opacity="0.6"></rect><circle cx="340" cy="340" r="44" fill="#141c26"></circle><path d="M320 340 L336 356 L364 324" stroke="#f7f0ee" stroke-width="12" stroke-linecap="round" stroke-linejoin="round" fill="none"></path><rect x="136" y="160" width="240" height="8" rx="4" ry="4" fill="#8da1b9" opacity="0.3"></rect><style>@media (prefers-color-scheme: light) { :root { filter: none; } }
@media (prefers-color-scheme: dark) { :root { filter: none; } }
</style></svg>
